<svg width="20" height="20" viewBox="0 0 20 20" fill="none" xmlns="http://www.w3.org/2000/svg">
<path d="M4.36621 4.10941C4.36621 4.63882 4.79933 5.07195 5.32875 5.07195C5.85816 5.07195 6.29128 4.63882 6.29128 4.10941V2.37415C6.29128 1.84474 5.85816 1.41162 5.32875 1.41162C4.79933 1.41162 4.36621 1.84474 4.36621 2.37415V4.10941Z" fill="#DBC66B"/>
<path d="M12.0391 4.10941C12.0391 4.63882 12.4722 5.07195 13.0016 5.07195C13.531 5.07195 13.9641 4.63882 13.9641 4.10941V2.37415C13.9641 1.84474 13.531 1.41162 13.0016 1.41162C12.4722 1.41162 12.0391 1.84474 12.0391 2.37415V4.10941Z" fill="#DBC66B"/>
<path d="M15.9546 3.48628H14.5075V4.24104C14.5075 4.70778 14.2615 5.14263 13.8568 5.37504C12.6925 6.04383 11.4978 5.21379 11.4978 4.10988V3.48628H6.83426V4.24104C6.83426 4.70778 6.58827 5.14263 6.18352 5.37504C5.01924 6.04383 3.82457 5.21379 3.82457 4.10988V3.48628H2.37742C1.54442 3.48628 0.869141 4.16156 0.869141 4.99456V16.6737C0.869141 17.5067 1.54442 18.182 2.37742 18.182H13.4833C13.0725 17.8025 12.7475 17.3315 12.5409 16.8018H3.19734C2.75008 16.8018 2.38755 16.4393 2.38755 15.9921V7.72827C2.38755 7.28101 2.75008 6.91848 3.19734 6.91848H15.1347C15.582 6.91848 15.9445 7.28101 15.9445 7.72827V11.7482C15.9626 11.7479 15.9806 11.7475 15.9988 11.7475C16.5184 11.7475 17.0135 11.8551 17.4629 12.0489V4.99437C17.4629 4.16137 16.7876 3.48608 15.9546 3.48608V3.48628Z" fill="#DBC66B"/>
<path d="M5.15263 14.0049H3.88269C3.75386 14.0049 3.64941 14.1093 3.64941 14.2382V15.5081C3.64941 15.6369 3.75386 15.7414 3.88269 15.7414H5.15263C5.28147 15.7414 5.38591 15.6369 5.38591 15.5081V14.2382C5.38591 14.1093 5.28147 14.0049 5.15263 14.0049Z" fill="#E4DBB4"/>
<path d="M8.25078 14.0049H6.98084C6.852 14.0049 6.74756 14.1093 6.74756 14.2382V15.5081C6.74756 15.6369 6.852 15.7414 6.98084 15.7414H8.25078C8.37962 15.7414 8.48406 15.6369 8.48406 15.5081V14.2382C8.48406 14.1093 8.37962 14.0049 8.25078 14.0049Z" fill="#E4DBB4"/>
<path d="M11.3494 14.0049H10.0795C9.95063 14.0049 9.84619 14.1093 9.84619 14.2382V15.5081C9.84619 15.6369 9.95063 15.7414 10.0795 15.7414H11.3494C11.4782 15.7414 11.5827 15.6369 11.5827 15.5081V14.2382C11.5827 14.1093 11.4782 14.0049 11.3494 14.0049Z" fill="#E4DBB4"/>
<path d="M5.15263 10.9919H3.88269C3.75386 10.9919 3.64941 11.0964 3.64941 11.2252V12.4952C3.64941 12.624 3.75386 12.7284 3.88269 12.7284H5.15263C5.28147 12.7284 5.38591 12.624 5.38591 12.4952V11.2252C5.38591 11.0964 5.28147 10.9919 5.15263 10.9919Z" fill="#E4DBB4"/>
<path d="M8.25078 10.9919H6.98084C6.852 10.9919 6.74756 11.0964 6.74756 11.2252V12.4952C6.74756 12.624 6.852 12.7284 6.98084 12.7284H8.25078C8.37962 12.7284 8.48406 12.624 8.48406 12.4952V11.2252C8.48406 11.0964 8.37962 10.9919 8.25078 10.9919Z" fill="#D9C054"/>
<path d="M11.3494 10.9919H10.0795C9.95063 10.9919 9.84619 11.0964 9.84619 11.2252V12.4952C9.84619 12.624 9.95063 12.7284 10.0795 12.7284H11.3494C11.4782 12.7284 11.5827 12.624 11.5827 12.4952V11.2252C11.5827 11.0964 11.4782 10.9919 11.3494 10.9919Z" fill="#E4DBB4"/>
<path d="M8.25176 7.97876H6.98181C6.85298 7.97876 6.74854 8.0832 6.74854 8.21204V9.48198C6.74854 9.61082 6.85298 9.71526 6.98181 9.71526H8.25176C8.38059 9.71526 8.48503 9.61082 8.48503 9.48198V8.21204C8.48503 8.0832 8.38059 7.97876 8.25176 7.97876Z" fill="#E4DBB4"/>
<path d="M11.3499 7.97876H10.08C9.95112 7.97876 9.84668 8.0832 9.84668 8.21204V9.48198C9.84668 9.61082 9.95112 9.71526 10.08 9.71526H11.3499C11.4787 9.71526 11.5832 9.61082 11.5832 9.48198V8.21204C11.5832 8.0832 11.4787 7.97876 11.3499 7.97876Z" fill="#E4DBB4"/>
<path d="M14.4485 7.97876H13.1786C13.0498 7.97876 12.9453 8.0832 12.9453 8.21204V9.48198C12.9453 9.61082 13.0498 9.71526 13.1786 9.71526H14.4485C14.5774 9.71526 14.6818 9.61082 14.6818 9.48198V8.21204C14.6818 8.0832 14.5774 7.97876 14.4485 7.97876Z" fill="#E4DBB4"/>
<path d="M14.449 10.9919H13.1792C13.0503 10.9919 12.9458 11.0964 12.9458 11.2252V12.4951C12.9458 12.6239 13.0503 12.7283 13.1792 12.7283H13.4889C13.8332 12.4114 14.2373 12.1587 14.6823 11.9892V11.2252C14.6823 11.0964 14.5778 10.9919 14.4489 10.9919H14.449Z" fill="#E4DBB4"/>
<path d="M15.9983 12.3262C14.2716 12.3262 12.8672 13.7307 12.8672 15.4573C12.8672 17.1838 14.2717 18.5884 15.9983 18.5884C17.7249 18.5884 19.1294 17.1836 19.1294 15.4573C19.1294 13.7309 17.7249 12.3262 15.9983 12.3262ZM17.3638 17.2102C16.9866 17.5046 16.5126 17.6807 15.9983 17.6807C14.7722 17.6807 13.7747 16.6832 13.7747 15.4574C13.7747 14.2316 14.7722 13.2338 15.9983 13.2338C16.5588 13.2338 17.0709 13.4425 17.4624 13.7858C17.9275 14.1939 18.2219 14.7917 18.2219 15.4574C18.2219 16.1689 17.8854 16.8031 17.3638 17.2103V17.2102Z" fill="#D9C054"/>
<path d="M17.3881 15.4572C17.3881 15.7139 17.1794 15.9226 16.9227 15.9226H15.9996C15.7428 15.9226 15.5342 15.7138 15.5342 15.4572V13.9803C15.5342 13.7235 15.7429 13.5149 15.9996 13.5149C16.2563 13.5149 16.465 13.7236 16.465 13.9803V14.9917H16.9227C17.1794 14.9917 17.3881 15.2004 17.3881 15.4571V15.4572Z" fill="#D9C054"/>
</svg>
