<svg width="20" height="21" viewBox="0 0 20 21" fill="none" xmlns="http://www.w3.org/2000/svg">
<path d="M4.36621 4.86747C4.36621 5.39688 4.79933 5.83 5.32875 5.83C5.85816 5.83 6.29128 5.39688 6.29128 4.86747V3.13221C6.29128 2.6028 5.85816 2.16968 5.32875 2.16968C4.79933 2.16968 4.36621 2.6028 4.36621 3.13221V4.86747Z" fill="#DBC66B"/>
<path d="M12.0391 4.86747C12.0391 5.39688 12.4722 5.83 13.0016 5.83C13.531 5.83 13.9641 5.39688 13.9641 4.86747V3.13221C13.9641 2.6028 13.531 2.16968 13.0016 2.16968C12.4722 2.16968 12.0391 2.6028 12.0391 3.13221V4.86747Z" fill="#DBC66B"/>
<path d="M15.9546 4.24433H14.5075V4.99909C14.5075 5.46584 14.2615 5.90068 13.8568 6.1331C12.6925 6.80189 11.4978 5.97185 11.4978 4.86793V4.24433H6.83426V4.99909C6.83426 5.46584 6.58827 5.90068 6.18352 6.1331C5.01924 6.80189 3.82457 5.97185 3.82457 4.86793V4.24433H2.37742C1.54442 4.24433 0.869141 4.91961 0.869141 5.75261V17.4318C0.869141 18.2648 1.54442 18.9401 2.37742 18.9401H13.4833C13.0725 18.5606 12.7475 18.0896 12.5409 17.5599H3.19734C2.75008 17.5599 2.38755 17.1974 2.38755 16.7501V8.48632C2.38755 8.03906 2.75008 7.67654 3.19734 7.67654H15.1347C15.582 7.67654 15.9445 8.03906 15.9445 8.48632V12.5062C15.9626 12.5059 15.9806 12.5055 15.9988 12.5055C16.5184 12.5055 17.0135 12.6131 17.4629 12.8069V5.75242C17.4629 4.91942 16.7876 4.24414 15.9546 4.24414V4.24433Z" fill="#DBC66B"/>
<path d="M5.15263 14.7629H3.88269C3.75386 14.7629 3.64941 14.8674 3.64941 14.9962V16.2662C3.64941 16.395 3.75386 16.4994 3.88269 16.4994H5.15263C5.28147 16.4994 5.38591 16.395 5.38591 16.2662V14.9962C5.38591 14.8674 5.28147 14.7629 5.15263 14.7629Z" fill="white"/>
<path d="M8.25078 14.7629H6.98084C6.852 14.7629 6.74756 14.8674 6.74756 14.9962V16.2662C6.74756 16.395 6.852 16.4994 6.98084 16.4994H8.25078C8.37962 16.4994 8.48406 16.395 8.48406 16.2662V14.9962C8.48406 14.8674 8.37962 14.7629 8.25078 14.7629Z" fill="white"/>
<path d="M11.3494 14.7629H10.0795C9.95063 14.7629 9.84619 14.8674 9.84619 14.9962V16.2662C9.84619 16.395 9.95063 16.4994 10.0795 16.4994H11.3494C11.4782 16.4994 11.5827 16.395 11.5827 16.2662V14.9962C11.5827 14.8674 11.4782 14.7629 11.3494 14.7629Z" fill="white"/>
<path d="M5.15263 11.75H3.88269C3.75386 11.75 3.64941 11.8544 3.64941 11.9833V13.2532C3.64941 13.3821 3.75386 13.4865 3.88269 13.4865H5.15263C5.28147 13.4865 5.38591 13.3821 5.38591 13.2532V11.9833C5.38591 11.8544 5.28147 11.75 5.15263 11.75Z" fill="white"/>
<path d="M8.25078 11.75H6.98084C6.852 11.75 6.74756 11.8544 6.74756 11.9833V13.2532C6.74756 13.3821 6.852 13.4865 6.98084 13.4865H8.25078C8.37962 13.4865 8.48406 13.3821 8.48406 13.2532V11.9833C8.48406 11.8544 8.37962 11.75 8.25078 11.75Z" fill="#DBC66B"/>
<path d="M11.3494 11.75H10.0795C9.95063 11.75 9.84619 11.8544 9.84619 11.9833V13.2532C9.84619 13.3821 9.95063 13.4865 10.0795 13.4865H11.3494C11.4782 13.4865 11.5827 13.3821 11.5827 13.2532V11.9833C11.5827 11.8544 11.4782 11.75 11.3494 11.75Z" fill="white"/>
<path d="M8.25176 8.73682H6.98181C6.85298 8.73682 6.74854 8.84126 6.74854 8.97009V10.24C6.74854 10.3689 6.85298 10.4733 6.98181 10.4733H8.25176C8.38059 10.4733 8.48503 10.3689 8.48503 10.24V8.97009C8.48503 8.84126 8.38059 8.73682 8.25176 8.73682Z" fill="white"/>
<path d="M11.3499 8.73682H10.08C9.95112 8.73682 9.84668 8.84126 9.84668 8.97009V10.24C9.84668 10.3689 9.95112 10.4733 10.08 10.4733H11.3499C11.4787 10.4733 11.5832 10.3689 11.5832 10.24V8.97009C11.5832 8.84126 11.4787 8.73682 11.3499 8.73682Z" fill="white"/>
<path d="M14.4485 8.73682H13.1786C13.0498 8.73682 12.9453 8.84126 12.9453 8.97009V10.24C12.9453 10.3689 13.0498 10.4733 13.1786 10.4733H14.4485C14.5774 10.4733 14.6818 10.3689 14.6818 10.24V8.97009C14.6818 8.84126 14.5774 8.73682 14.4485 8.73682Z" fill="white"/>
<path d="M14.449 11.75H13.1792C13.0503 11.75 12.9458 11.8544 12.9458 11.9833V13.2531C12.9458 13.382 13.0503 13.4864 13.1792 13.4864H13.4889C13.8332 13.1694 14.2373 12.9168 14.6823 12.7473V11.9833C14.6823 11.8544 14.5778 11.75 14.4489 11.75H14.449Z" fill="white"/>
<path d="M15.9983 13.0842C14.2716 13.0842 12.8672 14.4888 12.8672 16.2153C12.8672 17.9419 14.2717 19.3464 15.9983 19.3464C17.7249 19.3464 19.1294 17.9417 19.1294 16.2153C19.1294 14.489 17.7249 13.0842 15.9983 13.0842ZM17.3638 17.9683C16.9866 18.2627 16.5126 18.4387 15.9983 18.4387C14.7722 18.4387 13.7747 17.4412 13.7747 16.2154C13.7747 14.9896 14.7722 13.9918 15.9983 13.9918C16.5588 13.9918 17.0709 14.2006 17.4624 14.5439C17.9275 14.952 18.2219 15.5498 18.2219 16.2154C18.2219 16.9269 17.8854 17.5611 17.3638 17.9684V17.9683Z" fill="white"/>
<path d="M17.3881 16.2152C17.3881 16.472 17.1794 16.6806 16.9227 16.6806H15.9996C15.7428 16.6806 15.5342 16.4719 15.5342 16.2152V14.7384C15.5342 14.4816 15.7429 14.2729 15.9996 14.2729C16.2563 14.2729 16.465 14.4817 16.465 14.7384V15.7497H16.9227C17.1794 15.7497 17.3881 15.9584 17.3881 16.2151V16.2152Z" fill="#DBC66B"/>
</svg>
