<svg width="25" height="42" viewBox="0 0 25 42" fill="none" xmlns="http://www.w3.org/2000/svg">
<path d="M0.0341797 28.8116V41.004C2.20522 41.004 4.37627 41.004 6.56169 41.0184H11.1482C14.0956 41.0184 16.7412 40.0982 19.0847 38.3153C21.3564 36.59 22.9667 34.3615 23.7575 31.6153C25.0371 27.1438 24.2895 23.003 21.3996 19.3367C19.4154 16.8349 16.8274 15.2821 13.6931 14.6208L13.4199 14.5776C13.4055 15.656 13.233 16.6912 12.8304 17.6832C12.169 19.3511 12.2553 20.9326 13.233 22.4567C13.7218 23.2187 13.3624 23.9519 12.4566 24.0957C11.5508 24.2395 11.1338 24.944 11.4645 25.7635C11.6802 26.2955 11.5364 26.6693 10.9757 26.8994C10.7169 27 10.5875 27.0719 10.6881 27.417C10.8319 27.9058 10.6594 28.1215 10.1849 28.2509C9.68167 28.3947 9.3366 28.8404 9.32222 29.3867C9.27909 30.5801 8.53144 31.1552 7.38122 30.8677C6.43229 30.6232 5.54087 30.2638 4.6782 29.8037C3.22605 29.0273 1.68762 28.6535 0.0341797 28.8116Z" fill="url(#paint0_linear_80_15)"/>
<path d="M14.0305 13.8502C12.4245 15.8313 11.0656 17.0807 7.18293 18.3836C3.14143 19.7401 2.01193 20.454 0 23.3276V0H8.7007C12.6893 0 15.9366 3.42685 15.9895 7.24636V7.2999C16.0072 8.60282 15.9189 11.5121 14.0305 13.8502Z" fill="url(#paint1_linear_80_15)"/>
<defs>
<linearGradient id="paint0_linear_80_15" x1="12.1969" y1="14.5776" x2="12.1969" y2="41.0184" gradientUnits="userSpaceOnUse">
<stop stop-color="#F0DE85"/>
<stop offset="1" stop-color="#CBB356"/>
</linearGradient>
<linearGradient id="paint1_linear_80_15" x1="7.99559" y1="0" x2="7.99559" y2="23.3276" gradientUnits="userSpaceOnUse">
<stop stop-color="#F0DE85"/>
<stop offset="1" stop-color="#CBB356"/>
</linearGradient>
</defs>
</svg>
