<svg width="59" height="100" viewBox="0 0 59 100" fill="none" xmlns="http://www.w3.org/2000/svg">
<path d="M0.0808411 69.6687V99.1508C5.3306 99.1508 10.5804 99.1508 15.8649 99.1855H26.9554C34.0826 99.1855 40.4797 96.9605 46.1466 92.6494C51.6398 88.4774 55.5336 83.0886 57.4458 76.4482C60.54 65.6357 58.7321 55.6229 51.7441 46.7575C46.9463 40.7081 40.6883 36.9533 33.1091 35.354L32.4486 35.2497C32.4138 37.8572 31.9966 40.3604 31.0231 42.7593C29.4239 46.7922 29.6325 50.6165 31.9966 54.3018C33.1787 56.1444 32.3095 57.9175 30.1192 58.2652C27.9289 58.6129 26.9207 60.3164 27.7203 62.2981C28.2418 63.5845 27.8941 64.4884 26.5382 65.0447C25.9124 65.2881 25.5995 65.4619 25.8429 66.2963C26.1906 67.4784 25.7734 67.9999 24.6261 68.3128C23.4092 68.6604 22.5749 69.7382 22.5401 71.0593C22.4358 73.945 20.6279 75.3356 17.8466 74.6403C15.552 74.0493 13.3965 73.1801 11.3105 72.0676C7.79903 70.1902 4.079 69.2862 0.0808411 69.6687Z" fill="white"/>
<path d="M33.9272 33.4909C30.0437 38.2814 26.7577 41.3025 17.3691 44.4531C7.59643 47.7331 4.8652 49.4594 0.000198364 56.4079V0H21.0392C30.6838 0 38.5361 8.2864 38.6642 17.5223V17.6518C38.7068 20.8023 38.4935 27.8371 33.9272 33.4909Z" fill="white"/>
</svg>
