<svg width="577" height="261" viewBox="0 0 577 261" fill="none" xmlns="http://www.w3.org/2000/svg">
<path d="M156.39 251.705H146.148V225.456H156.189C158.591 225.456 160.482 226.044 161.865 227.221C163.26 228.397 163.957 229.992 163.957 232.005C163.957 233.363 163.514 234.588 162.629 235.679C161.756 236.771 160.689 237.432 159.427 237.662V237.953C161.222 238.184 162.647 238.875 163.702 240.027C164.757 241.167 165.285 242.604 165.285 244.338C165.285 246.654 164.497 248.461 162.92 249.759C161.356 251.057 159.179 251.705 156.39 251.705ZM149.422 228.348V236.771H154.661C158.651 236.771 160.646 235.37 160.646 232.569C160.646 231.235 160.191 230.198 159.282 229.458C158.384 228.718 157.123 228.348 155.498 228.348H149.422ZM149.422 248.813H155.898C157.875 248.813 159.373 248.419 160.392 247.631C161.41 246.842 161.92 245.69 161.92 244.174C161.92 241.118 159.809 239.59 155.589 239.59H149.422V248.813ZM187.641 248.759V251.705H171.378V225.456H187.641V228.403H174.652V236.825H186.968V239.736H174.652V248.759H187.641ZM211.379 251.705L208.741 244.193H198.3L195.662 251.705H192.224L201.901 225.456H205.139L214.817 251.705H211.379ZM203.375 229.695L199.264 241.409H207.777L203.666 229.695H203.375ZM222.984 225.456V242.465C222.984 244.49 223.614 246.139 224.876 247.412C226.149 248.674 227.901 249.304 230.133 249.304C232.364 249.304 234.111 248.674 235.372 247.412C236.645 246.139 237.282 244.49 237.282 242.465V225.456H240.556V242.683C240.556 245.533 239.616 247.855 237.737 249.65C235.869 251.433 233.334 252.324 230.133 252.324C226.931 252.324 224.391 251.433 222.511 249.65C220.643 247.855 219.71 245.533 219.71 242.683V225.456H222.984ZM258.182 251.705H254.908V228.403H246.449V225.456H266.641V228.403H258.182V251.705ZM282.957 251.705H279.683V240.409L270.369 225.456H274.099L281.175 237.116H281.466L288.542 225.456H292.271L282.957 240.409V251.705ZM307.641 244.848H310.952C311.158 246.218 311.867 247.309 313.08 248.122C314.293 248.934 315.833 249.341 317.7 249.341C319.471 249.341 320.932 248.916 322.084 248.067C323.249 247.206 323.831 246.127 323.831 244.829C323.831 243.714 323.406 242.792 322.557 242.064C321.708 241.325 320.381 240.724 318.574 240.263L315.208 239.39C312.831 238.796 311.103 237.935 310.024 236.807C308.945 235.679 308.405 234.182 308.405 232.314C308.405 230.083 309.254 228.282 310.952 226.911C312.662 225.529 314.905 224.838 317.682 224.838C320.217 224.838 322.339 225.517 324.049 226.875C325.759 228.233 326.681 229.974 326.814 232.096H323.521C323.291 230.75 322.648 229.701 321.593 228.949C320.55 228.185 319.21 227.803 317.573 227.803C315.827 227.803 314.42 228.209 313.353 229.022C312.298 229.822 311.77 230.883 311.77 232.205C311.77 233.236 312.158 234.073 312.934 234.715C313.723 235.358 315.02 235.91 316.827 236.371L319.574 237.098C322.291 237.777 324.237 238.687 325.413 239.827C326.602 240.967 327.196 242.501 327.196 244.429C327.196 246.842 326.311 248.765 324.54 250.196C322.77 251.614 320.387 252.324 317.391 252.324C314.614 252.324 312.334 251.645 310.551 250.287C308.781 248.928 307.811 247.115 307.641 244.848ZM350.461 251.705L347.824 244.193H337.382L334.744 251.705H331.306L340.984 225.456H344.222L353.899 251.705H350.461ZM342.457 229.695L338.346 241.409H346.86L342.748 229.695H342.457ZM375.182 248.759V251.705H359.247V225.456H362.521V248.759H375.182ZM391.116 224.838C394.839 224.838 397.768 226.075 399.902 228.549C402.049 231.01 403.122 234.351 403.122 238.572C403.122 242.792 402.049 246.139 399.902 248.613C397.768 251.087 394.839 252.324 391.116 252.324C387.369 252.324 384.422 251.087 382.276 248.613C380.129 246.139 379.056 242.792 379.056 238.572C379.056 234.351 380.135 231.01 382.294 228.549C384.464 226.075 387.405 224.838 391.116 224.838ZM391.116 227.857C388.448 227.857 386.332 228.821 384.768 230.75C383.203 232.678 382.421 235.285 382.421 238.572C382.421 241.858 383.191 244.472 384.731 246.412C386.284 248.34 388.412 249.304 391.116 249.304C393.796 249.304 395.906 248.334 397.447 246.394C398.987 244.453 399.757 241.846 399.757 238.572C399.757 235.273 398.987 232.666 397.447 230.75C395.906 228.821 393.796 227.857 391.116 227.857ZM412.799 251.705H409.561V225.456H412.744L426.988 245.884H427.279V225.456H430.517V251.705H427.333L413.09 231.35H412.799V251.705Z" fill="black"/>
<path d="M48.7734 135.739C48.8537 135.498 48.9339 135.257 48.9339 135.017C48.8537 135.257 48.8537 135.498 48.7734 135.739Z" fill="url(#paint0_linear_206_475)"/>
<path d="M144.004 180.827C137.906 180.827 132.371 178.821 127.477 174.89C122.583 170.878 120.176 164.861 120.176 156.758C120.176 149.297 122.021 141.354 125.631 132.77C129.242 124.266 133.895 116.724 139.511 110.306C144.325 104.69 149.7 100.037 155.637 96.4262C161.574 92.8159 167.19 90.9707 172.485 90.9707C176.095 90.9707 179.304 91.9335 181.952 93.9392C184.76 96.1053 186.204 99.154 186.204 103.085C186.204 107.257 184.599 111.75 181.47 116.724C178.341 121.698 173.849 126.351 168.072 130.604C165.585 132.449 162.456 134.134 158.605 135.818C154.835 137.503 150.984 138.867 147.213 139.91C143.442 140.953 140.233 141.515 137.746 141.515C136.944 143.52 136.141 146.168 135.419 149.457C134.697 152.747 134.296 156.196 134.296 159.646C134.296 163.818 135.098 167.509 136.783 170.798C138.468 174.087 141.517 175.772 145.929 175.772C151.385 175.772 156.359 174.168 160.852 171.039C165.344 167.91 169.276 163.979 172.725 159.245C176.175 154.512 179.144 149.778 181.551 144.964C183.957 140.151 185.883 136.139 187.407 132.77C188.37 130.443 189.734 129.32 191.338 129.32C192.141 129.32 192.542 129.721 192.542 130.523C192.542 131.165 192.301 132.048 191.82 133.01C189.493 137.985 187.006 143.199 184.359 148.735C181.711 154.271 178.582 159.486 174.892 164.38C171.281 169.274 166.869 173.205 161.895 176.173C156.92 179.302 150.903 180.827 144.004 180.827ZM139.511 137.102C141.837 137.102 145.688 136.22 151.144 134.535C156.6 132.85 161.574 130.042 166.066 126.191C170.399 122.42 173.688 118.248 176.015 113.675C178.341 109.102 179.465 105.251 179.465 102.122C179.465 98.5122 178.101 96.6669 175.533 96.6669C173.528 96.6669 170.8 98.0308 167.35 100.678C163.9 103.326 159.568 107.819 154.433 114.076C151.304 118.088 148.336 122.34 145.528 126.993C142.64 131.566 140.634 134.936 139.511 137.102Z" fill="url(#paint1_linear_206_475)"/>
<path d="M200.326 180.586C193.346 180.586 188.693 178.741 186.206 174.97C183.719 171.279 182.516 166.787 182.516 161.732C182.516 156.437 183.238 150.982 184.762 145.366C186.286 139.75 187.57 135.016 188.693 131.245C191.341 122.019 194.71 112.071 198.722 101.561C202.813 91.051 207.226 80.7015 212.12 70.5125C217.014 60.3234 221.828 51.1774 226.641 43.0743C230.412 36.656 234.504 31.7621 238.916 28.553C243.329 25.3438 247.18 23.7393 250.469 23.7393C253.117 23.7393 255.203 24.702 256.807 26.6275C258.412 28.5529 259.134 31.361 259.134 35.2119C259.134 37.8595 258.652 40.9884 257.77 44.6789C256.887 48.2892 255.363 52.461 253.197 57.1143C247.42 70.0311 240.521 82.9479 232.498 95.8647C224.475 108.781 214.366 120.816 202.091 132.128C201.45 134.294 200.567 136.781 199.524 139.669C198.481 142.558 197.518 145.526 196.636 148.495C195.673 152.987 195.112 156.758 195.112 159.887C195.112 165.022 196.154 168.873 198.24 171.44C200.326 174.007 202.813 175.291 205.782 175.291C208.429 175.291 211.237 174.328 214.206 172.403C217.174 170.477 219.982 167.749 222.63 164.059C226.561 158.282 230.171 152.346 233.461 146.328C236.67 140.311 239.157 135.658 240.762 132.288C241.724 130.443 242.847 129.561 243.971 129.561C244.773 129.561 245.174 130.042 245.174 131.085C245.174 131.887 244.933 132.85 244.452 133.813C242.928 137.102 241.002 141.354 238.595 146.569C236.188 151.784 233.22 156.999 229.69 162.214C226.16 167.428 221.908 171.841 217.014 175.371C212.2 178.741 206.584 180.586 200.326 180.586ZM204.017 123.945C209.954 117.847 215.73 110.787 221.426 102.764C227.042 94.7415 232.338 86.3977 237.151 77.733C242.045 69.0683 246.137 60.8048 249.426 53.0227C250.549 50.5356 251.512 47.8078 252.314 44.8393C253.036 41.8709 253.438 39.3838 253.438 37.3781C253.438 35.0515 252.876 33.9283 251.673 33.9283C251.031 33.9283 249.988 34.5701 248.704 35.7735C247.34 36.977 245.655 39.1431 243.489 42.1116C240.36 46.2835 236.911 51.8995 233.22 58.9596C229.53 66.0999 225.759 73.7216 221.908 81.8247C218.137 89.9278 214.607 97.7901 211.478 105.251C208.349 112.793 205.862 118.97 204.017 123.945Z" fill="url(#paint2_linear_206_475)"/>
<path d="M252.716 179.784C246.458 179.784 241.805 177.698 238.837 173.446C235.868 169.194 234.344 164.059 234.344 157.962C234.344 150.5 236.109 142.718 239.559 134.615C242.848 126.994 247.1 120.094 252.235 113.756C257.369 107.498 262.905 102.363 268.842 98.5124C274.779 94.6615 280.555 92.6558 286.252 92.6558C292.509 92.6558 297.163 94.7417 300.131 98.8333C303.1 103.005 304.624 108.22 304.624 114.478C304.624 122.1 302.859 129.882 299.409 137.824C297.403 142.317 294.595 147.211 290.985 152.586C287.375 157.962 283.203 162.856 278.55 167.348C279.512 169.194 280.956 170.718 282.802 171.922C284.647 173.125 287.134 173.767 290.263 173.767C294.194 173.767 297.965 172.082 301.575 168.793C305.105 165.503 308.395 161.492 311.363 156.758C314.332 152.025 316.979 147.291 319.306 142.478C321.632 137.664 323.558 133.813 325.002 130.845C325.483 129.882 326.286 129.32 327.489 129.32C328.131 129.32 328.612 129.641 329.013 130.203C329.334 130.764 329.254 131.647 328.773 132.77C327.81 135.257 326.125 138.948 323.798 143.842C321.472 148.735 318.664 153.79 315.375 159.005C312.085 164.22 308.234 168.632 303.982 172.323C299.65 175.933 294.916 177.778 289.621 177.778C286.011 177.778 282.802 177.136 280.154 175.933C277.507 174.73 275.341 173.125 273.736 171.36C270.286 174.007 266.756 176.093 263.306 177.538C259.616 179.062 256.166 179.784 252.716 179.784ZM256.407 174.328C260.899 174.328 265.633 172.162 270.767 167.91C269.404 165.904 268.441 163.818 267.799 161.732C267.157 159.566 266.836 157.561 266.836 155.796C266.836 152.827 267.558 150.26 268.922 148.094C270.286 145.927 272.533 144.885 275.501 144.885C277.667 144.885 279.432 145.687 280.876 147.211C282.32 148.816 282.962 150.581 282.962 152.586C282.962 153.068 282.882 153.549 282.802 153.95C282.722 154.351 282.561 154.833 282.401 155.314C285.209 151.543 287.856 147.051 290.343 141.916C295.799 130.203 298.527 120.495 298.527 112.873C298.527 109.103 297.804 106.054 296.28 103.968C294.756 101.802 292.59 100.759 289.541 100.759C286.091 100.759 282.32 102.283 278.229 105.252C274.137 108.22 270.286 112.232 266.596 117.125C262.905 122.1 259.616 127.635 256.808 133.733C254.16 139.349 252.074 144.804 250.47 150.019C248.865 155.234 248.143 159.727 248.143 163.578C248.143 166.867 248.785 169.515 250.149 171.52C251.513 173.366 253.599 174.328 256.407 174.328Z" fill="url(#paint3_linear_206_475)"/>
<path d="M332.865 181.549C327.731 181.549 324.201 180.185 322.195 177.618C320.189 174.97 319.227 171.6 319.227 167.429C319.227 163.096 320.029 158.283 321.553 152.747C323.158 147.291 324.843 141.916 326.608 136.621C325.484 138.306 324.281 139.108 323.158 139.108C322.516 139.108 322.035 138.787 321.633 138.145C321.313 137.503 321.393 136.701 321.874 135.899C322.676 134.374 323.559 132.93 324.361 131.566C325.163 130.122 325.966 128.678 326.608 127.234C327.891 124.426 329.014 121.057 329.977 117.206C330.86 113.355 331.341 109.744 331.341 106.375C331.341 103.727 331.02 101.481 330.378 99.6355C329.736 97.7902 328.693 96.7473 327.41 96.4263C330.86 95.7845 333.587 95.3032 335.593 94.902C337.599 94.5811 338.883 94.4206 339.605 94.4206C340.567 94.2602 341.53 94.0997 342.332 94.0195C343.135 93.9393 343.937 93.859 344.579 93.859C346.264 93.859 347.387 94.5009 347.948 95.8648C348.51 97.2286 348.751 100.117 348.59 104.529C348.43 108.701 347.627 113.675 346.103 119.532C344.579 125.389 343.054 130.523 341.37 134.776C339.203 140.392 337.198 146.088 335.433 151.864C333.587 157.641 332.705 162.454 332.705 166.225C332.705 169.514 333.587 171.681 335.433 172.643C336.716 173.125 337.92 173.365 338.883 173.365C342.653 173.365 346.424 171.44 350.195 167.669C353.885 163.898 357.496 158.764 361.026 152.426C364.475 146.088 367.765 139.268 370.733 131.968C369.61 129.641 368.728 127.074 368.246 124.266C367.765 121.458 367.524 118.73 367.524 116.082C367.524 112.953 367.925 109.985 368.727 107.177C370.733 100.598 373.461 95.7845 377.071 92.8963C380.601 90.0081 383.65 88.564 386.137 88.564C389.266 88.564 390.871 90.0081 390.871 92.8161C390.871 93.4579 390.63 94.5009 390.149 95.7845C389.828 96.1054 389.667 96.5868 389.667 97.3089C388.544 100.759 386.779 105.813 384.613 112.472C382.366 119.131 379.639 126.352 376.429 134.214C373.22 142.076 369.369 149.618 365.037 156.838C360.624 164.059 355.811 169.916 350.516 174.569C344.9 179.222 339.123 181.549 332.865 181.549Z" fill="url(#paint4_linear_206_475)"/>
<path d="M407.074 180.827C400.977 180.827 395.441 178.821 390.547 174.89C385.653 170.878 383.246 164.861 383.246 156.758C383.246 149.297 385.091 141.354 388.702 132.77C392.312 124.266 396.965 116.724 402.581 110.306C407.395 104.69 412.77 100.037 418.707 96.4262C424.644 92.8159 430.26 90.9707 435.555 90.9707C439.165 90.9707 442.374 91.9335 445.022 93.9392C447.83 96.1053 449.274 99.154 449.274 103.085C449.274 107.257 447.67 111.75 444.541 116.724C441.412 121.698 436.919 126.351 431.143 130.604C428.655 132.449 425.526 134.134 421.676 135.818C417.905 137.503 414.054 138.867 410.283 139.91C406.512 140.953 403.303 141.515 400.816 141.515C400.014 143.52 399.212 146.168 398.49 149.457C397.767 152.747 397.366 156.196 397.366 159.646C397.366 163.818 398.169 167.509 399.853 170.798C401.538 174.087 404.587 175.772 408.999 175.772C414.455 175.772 419.429 174.168 423.922 171.039C428.415 167.91 432.346 163.979 435.796 159.245C439.246 154.512 442.214 149.778 444.621 144.964C447.028 140.151 448.953 136.139 450.478 132.77C451.44 130.443 452.804 129.32 454.489 129.32C455.291 129.32 455.692 129.721 455.692 130.523C455.692 131.165 455.452 132.048 454.97 133.01C452.644 137.985 450.157 143.199 447.509 148.735C444.862 154.271 441.733 159.486 438.042 164.38C434.432 169.274 430.019 173.205 425.045 176.173C419.991 179.302 413.974 180.827 407.074 180.827ZM402.581 137.102C404.908 137.102 408.759 136.22 414.214 134.535C419.67 132.85 424.644 130.042 429.137 126.191C433.469 122.42 436.758 118.248 439.085 113.675C441.412 109.102 442.535 105.251 442.535 102.122C442.535 98.5122 441.171 96.6669 438.523 96.6669C436.518 96.6669 433.79 98.0308 430.34 100.678C426.89 103.326 422.558 107.819 417.423 114.076C414.294 118.088 411.326 122.34 408.518 126.993C405.71 131.566 403.704 134.936 402.581 137.102Z" fill="url(#paint5_linear_206_475)"/>
<path d="M505.834 179.784C501.341 179.784 497.65 177.537 494.682 173.045C493.88 171.761 493.077 169.996 492.435 167.83C491.794 165.664 491.473 163.257 491.473 160.609C491.473 159.085 491.553 157.56 491.713 156.036C491.874 154.432 492.195 152.827 492.676 151.222C490.35 154.833 487.702 158.844 484.573 163.257C481.524 167.669 478.075 171.44 474.143 174.649C470.292 177.858 465.88 179.463 461.146 179.463C459.462 179.463 457.777 179.222 455.932 178.741C451.439 177.457 448.31 175.131 446.384 171.761C444.459 168.472 443.496 164.46 443.496 159.887C443.496 154.753 444.539 149.137 446.625 143.039C448.711 136.942 451.358 130.925 454.568 125.148C457.777 119.372 461.146 114.398 464.596 110.226C469.57 104.449 475.267 99.796 481.685 96.3462C488.103 92.8964 494.682 91.1313 501.261 91.1313C507.198 91.1313 512.814 92.7359 518.109 95.8648C520.596 91.2116 523.243 86.0769 526.051 80.3807C528.859 74.6845 531.667 68.9883 534.475 63.3723C537.283 57.7563 539.77 52.5414 541.936 47.8882C544.103 43.1547 545.707 39.5444 546.911 37.0573C549.398 31.2809 551.724 27.5904 553.971 25.9858C556.217 24.3812 558.865 23.6592 562.074 23.6592C563.919 23.6592 565.925 23.8999 568.171 24.301C570.418 24.7021 572.584 24.8626 574.75 24.7021C573.787 25.6649 571.701 28.5531 568.653 33.2866C565.604 38.0201 561.994 44.0372 557.822 51.2578C553.65 58.5586 549.237 66.5012 544.584 75.2461C539.931 83.991 535.197 92.7359 530.704 101.561C526.131 110.386 521.96 118.81 518.028 126.592C514.177 134.455 511.048 141.194 508.722 146.81C508.08 148.174 507.117 150.821 505.834 154.913C504.63 159.005 503.988 162.454 503.988 165.423C503.988 167.589 504.47 169.434 505.513 171.039C506.475 172.643 508.16 173.366 510.487 173.366C513.616 173.366 516.825 171.761 520.034 168.552C523.243 165.343 526.372 161.331 529.341 156.678C532.309 151.945 534.957 147.371 537.283 142.798C539.61 138.225 541.375 134.615 542.498 131.968C543.3 130.122 544.343 129.24 545.467 129.24C546.429 129.24 546.991 129.962 546.991 131.486C546.991 131.647 546.991 131.968 546.991 132.369C546.991 132.77 546.83 133.251 546.509 133.733C544.985 137.182 542.979 141.515 540.412 146.649C537.845 151.784 534.796 156.919 531.346 162.053C527.896 167.188 523.965 171.44 519.713 174.81C515.461 178.099 510.808 179.784 505.834 179.784ZM462.911 172.323C465.238 172.323 468.126 171.039 471.576 168.472C475.026 165.904 478.797 161.813 482.728 156.197C487.381 149.618 492.676 141.274 498.613 131.406C504.55 121.458 510.407 110.948 516.263 99.8762C514.097 97.8705 511.61 96.9078 508.802 96.9078C504.149 96.9078 499.014 99.0739 493.318 103.326C487.622 107.658 482.086 113.114 476.711 119.693C471.335 126.352 466.843 133.011 463.152 139.83C460.665 144.483 458.9 148.655 457.777 152.506C456.734 156.277 456.172 159.646 456.172 162.454C456.172 169.033 458.419 172.323 462.911 172.323Z" fill="url(#paint6_linear_206_475)"/>
<path d="M112.475 118.891C112.475 152.587 85.1969 179.864 51.501 179.864H2V140.954C10.0228 140.232 17.8852 141.595 25.4267 145.045V145.366C26.3092 145.607 27.272 145.928 28.1545 146.409C28.3149 146.489 28.4754 146.57 28.6359 146.65C34.3321 149.698 40.1085 152.105 46.5268 153.389C47.7302 153.63 48.9337 153.549 50.0569 153.229C53.5067 152.186 56.2345 148.736 55.9135 145.125C55.5926 141.595 57.9192 138.386 61.2888 137.744C62.8132 137.424 63.5353 136.782 63.8562 135.899C63.9364 135.658 64.0166 135.418 64.0166 135.177C64.0166 135.097 64.0166 134.936 64.0166 134.776C64.0166 134.616 64.0166 134.535 64.0166 134.375C64.0166 134.054 64.0166 133.733 63.9364 133.412C63.8562 132.53 63.455 131.727 63.2143 130.765C64.3375 130.283 65.3003 129.962 66.1828 129.561C68.349 128.438 69.6326 125.79 68.7501 124.266C67.9478 122.822 67.6269 121.378 67.6269 120.094C67.6269 119.934 67.6269 119.773 67.6269 119.613C67.6269 119.372 67.6269 119.212 67.7071 118.971C67.7071 118.891 67.7874 118.73 67.7874 118.65C67.7874 118.57 67.7874 118.57 67.7874 118.49C67.7874 118.329 67.8676 118.249 67.8676 118.088C67.9478 117.928 67.9478 117.768 68.028 117.607C68.1083 117.447 68.1885 117.286 68.1885 117.206C68.349 116.885 68.5094 116.644 68.6699 116.404C68.7501 116.323 68.8303 116.163 68.9106 116.083C68.9106 116.083 68.9106 116.083 68.9908 116.003C69.071 115.842 69.2315 115.762 69.3117 115.682C69.5524 115.441 69.7931 115.28 70.0337 115.04C70.1942 114.96 70.3547 114.879 70.4349 114.719C70.5953 114.639 70.7558 114.558 70.9163 114.478C71.1569 114.318 71.4779 114.237 71.7988 114.077C71.7988 114.077 71.879 114.077 71.879 113.997C72.6011 113.756 73.4836 113.515 74.3661 113.435C78.8589 113.034 81.1053 108.14 78.538 104.289C72.6813 95.6245 71.9592 86.318 75.8102 76.6906C77.4148 72.6791 78.4577 68.6677 78.9391 64.576C98.916 74.6046 112.475 95.1431 112.475 118.891Z" fill="url(#paint7_linear_206_475)"/>
<path d="M65.7816 62.4901C58.4006 71.3954 52.3033 77.0114 34.653 82.8681C16.2807 88.9655 11.146 92.1746 2 105.091V0.312988H41.5526C59.6843 0.312988 74.4463 15.7169 74.687 32.8858V33.1264C74.7672 38.9831 74.3661 52.0604 65.7816 62.4901Z" fill="url(#paint8_linear_206_475)"/>
<path d="M441.641 240.276H574.833" stroke="#EDDA80" stroke-width="2.63322" stroke-miterlimit="10" stroke-linecap="round"/>
<path d="M2 240.276H135.192" stroke="#EDDA80" stroke-width="2.63322" stroke-miterlimit="10" stroke-linecap="round"/>
<defs>
<linearGradient id="paint0_linear_206_475" x1="48.7587" y1="135.363" x2="48.922" y2="135.363" gradientUnits="userSpaceOnUse">
<stop offset="0.0167617" stop-color="#F6E58C"/>
<stop offset="1" stop-color="#BBA140"/>
</linearGradient>
<linearGradient id="paint1_linear_206_475" x1="347.492" y1="38.9993" x2="347.492" y2="130.842" gradientUnits="userSpaceOnUse">
<stop offset="0.0167617" stop-color="#F6E58C"/>
<stop offset="1" stop-color="#BBA140"/>
</linearGradient>
<linearGradient id="paint2_linear_206_475" x1="347.494" y1="38.9993" x2="347.494" y2="130.842" gradientUnits="userSpaceOnUse">
<stop offset="0.0167617" stop-color="#F6E58C"/>
<stop offset="1" stop-color="#BBA140"/>
</linearGradient>
<linearGradient id="paint3_linear_206_475" x1="347.494" y1="38.9995" x2="347.494" y2="130.842" gradientUnits="userSpaceOnUse">
<stop offset="0.0167617" stop-color="#F6E58C"/>
<stop offset="1" stop-color="#BBA140"/>
</linearGradient>
<linearGradient id="paint4_linear_206_475" x1="347.495" y1="38.9994" x2="347.495" y2="130.842" gradientUnits="userSpaceOnUse">
<stop offset="0.0167617" stop-color="#F6E58C"/>
<stop offset="1" stop-color="#BBA140"/>
</linearGradient>
<linearGradient id="paint5_linear_206_475" x1="347.493" y1="38.9993" x2="347.493" y2="130.842" gradientUnits="userSpaceOnUse">
<stop offset="0.0167617" stop-color="#F6E58C"/>
<stop offset="1" stop-color="#BBA140"/>
</linearGradient>
<linearGradient id="paint6_linear_206_475" x1="347.491" y1="38.9994" x2="347.491" y2="130.842" gradientUnits="userSpaceOnUse">
<stop offset="0.0167617" stop-color="#F6E58C"/>
<stop offset="1" stop-color="#BBA140"/>
</linearGradient>
<linearGradient id="paint7_linear_206_475" x1="7.62354" y1="-23.1771" x2="74.2225" y2="202.444" gradientUnits="userSpaceOnUse">
<stop offset="0.0167617" stop-color="#F6E58C"/>
<stop offset="1" stop-color="#BBA140"/>
</linearGradient>
<linearGradient id="paint8_linear_206_475" x1="11.4167" y1="-24.2969" x2="78.0157" y2="201.324" gradientUnits="userSpaceOnUse">
<stop offset="0.0167617" stop-color="#F6E58C"/>
<stop offset="1" stop-color="#BBA140"/>
</linearGradient>
</defs>
</svg>
